<svg width="2916" height="2358" viewBox="0 0 2916 2358" fill="none" xmlns="http://www.w3.org/2000/svg">
<g clip-path="url(#clip0_5420_148)">
<g opacity="0.5" filter="url(#filter0_f_5420_148)">
<mask id="path-1-outside-1_5420_148" maskUnits="userSpaceOnUse" x="179.369" y="522.828" width="2622" height="1317" fill="black">
<rect fill="white" x="179.369" y="522.828" width="2622" height="1317"/>
<path d="M653.599 809.823L897.739 603.193L805.186 569.958L832.515 546.828L1052.67 625.882L1025.34 649.012L933.683 616.1L689.543 822.73L653.599 809.823Z"/>
<path d="M861.495 884.475L1132.96 654.715L1168.91 667.622L897.438 897.382L861.495 884.475Z"/>
<path d="M1160.78 997.215C1137.12 988.718 1118.8 978.042 1105.84 965.186C1093.11 952.125 1085.61 937.717 1083.32 921.961C1081.57 906.107 1085.16 889.532 1094.08 872.236C1102.99 854.939 1117.66 837.656 1138.06 820.386C1158.47 803.115 1181.22 788.736 1206.31 777.248C1231.4 765.759 1257.45 757.251 1284.46 751.723C1311.77 746.301 1338.71 744.262 1365.28 745.604C1392.09 746.74 1417.33 751.556 1440.99 760.053C1463.76 768.228 1480.85 778.317 1492.26 790.322C1503.97 802.434 1510.74 815.115 1512.58 828.366C1514.96 841.519 1513.13 853.895 1507.11 865.494L1461.38 863.571C1468.79 847.195 1468.54 831.879 1460.64 817.622C1453.29 803.268 1437.63 791.788 1413.66 783.184C1389.1 774.364 1362.5 770.522 1333.86 771.657C1305.21 772.791 1277 778.619 1249.21 789.139C1221.66 799.454 1196.6 814.171 1174 833.292C1151.66 852.208 1137.37 870.797 1131.15 889.062C1124.93 907.326 1126.66 923.909 1136.36 938.811C1146.3 953.507 1163.55 965.265 1188.11 974.085C1212.07 982.689 1237.33 986.048 1263.87 984.16C1290.72 982.38 1316.23 976.313 1340.41 965.961L1362.08 988.238C1345.51 995.76 1325.72 1001.68 1302.69 1006.01C1280.21 1010.23 1256.55 1011.84 1231.72 1010.83C1207.19 1009.93 1183.54 1005.39 1160.78 997.215Z"/>
<path d="M1399.34 1077.61L1670.81 847.85L1706.76 860.756L1548.25 994.911L1543.44 989.232L1867.15 918.353L1912.08 934.486L1652.23 991.398L1674.79 974.465L1648.7 1167.15L1605.57 1151.66L1625.18 997.499L1517.28 1021.13L1435.29 1090.52L1399.34 1077.61Z"/>
<path d="M1729.26 1196.08L2000.73 966.317L2036.67 979.223L1792.53 1185.85L1940.8 1239.09L1913.47 1262.22L1729.26 1196.08Z"/>
<path d="M2003.89 1294.69L2275.36 1064.93L2491.02 1142.37L2463.69 1165.5L2283.97 1100.97L2189.59 1180.85L2360.32 1242.15L2332.99 1265.28L2162.26 1203.98L2067.16 1284.47L2246.88 1349L2219.55 1372.13L2003.89 1294.69Z"/>
<path d="M2314.93 1406.38L2586.4 1176.62L2696.48 1216.15C2729.73 1228.09 2753.04 1243.2 2766.43 1261.48C2780.06 1279.55 2783.41 1299.64 2776.48 1321.75C2769.8 1343.65 2752.61 1366.33 2724.92 1389.76C2697.47 1413 2666.8 1430.83 2632.91 1443.26C2599.03 1455.69 2564.22 1462.22 2528.48 1462.86C2492.75 1463.5 2458.26 1457.85 2425.01 1445.91L2314.93 1406.38ZM2378.21 1396.16L2452.34 1422.78C2478.1 1432.03 2504.78 1436.34 2532.4 1435.72C2560.26 1434.89 2587.42 1429.41 2613.88 1419.29C2640.64 1409.28 2665.07 1394.92 2687.18 1376.21C2709.28 1357.5 2723.11 1339.48 2728.66 1322.15C2734.45 1304.61 2732.29 1288.75 2722.16 1274.57C2712.28 1260.19 2694.61 1248.42 2669.15 1239.28L2595.02 1212.66L2378.21 1396.16Z"/>
<path d="M221.369 1093.86L492.838 864.104L621.335 910.246C644.398 918.528 661.487 928.617 672.6 940.514C684.013 952.519 688.373 965.798 685.682 980.352C682.991 994.905 672.171 1010.2 653.223 1026.24C634.761 1041.86 613.851 1053.24 590.492 1060.38C567.433 1067.62 543.517 1070.89 518.743 1070.19C494.512 1069.4 471.015 1064.91 448.251 1056.74L389.393 1035.6L291.009 1118.87L221.369 1093.86ZM438.586 993.968L497.892 1015.26C507.777 1018.81 517.892 1020.54 528.239 1020.45C538.585 1020.36 548.499 1018.65 557.981 1015.32C567.761 1012.09 576.295 1007.4 583.583 1001.23C591.114 994.857 595.576 988.553 596.97 982.319C598.663 976.192 597.495 970.501 593.464 965.247C589.434 959.993 582.476 955.591 572.592 952.041L513.285 930.745L438.586 993.968Z"/>
<path d="M836.634 1314.8L1108.1 1085.04L1177.74 1110.04L906.274 1339.8L836.634 1314.8Z"/>
<path d="M1289.12 1477.28L1560.59 1247.52L1614.05 1266.72L1601.74 1493.78L1567.52 1488.08L1765.02 1320.93L1834.66 1345.93L1563.19 1575.69L1509.27 1556.33L1526.19 1329.17L1557.71 1333.9L1358.76 1502.28L1289.12 1477.28Z"/>
<path d="M1946.07 1713.18L2217.53 1483.42L2287.18 1508.43L2151.26 1623.46L2137.4 1611.9L2401.74 1549.57L2488.91 1580.86L2226.64 1643.06L2270.77 1610.59L2220.13 1811.59L2138.81 1782.39L2171.82 1655.88L2090.04 1675.27L2015.71 1738.19L1946.07 1713.18Z"/>
</mask>
<path d="M653.599 809.823L897.739 603.193L805.186 569.958L832.515 546.828L1052.67 625.882L1025.34 649.012L933.683 616.1L689.543 822.73L653.599 809.823Z" fill="black"/>
<path d="M861.495 884.475L1132.96 654.715L1168.91 667.622L897.438 897.382L861.495 884.475Z" fill="black"/>
<path d="M1160.78 997.215C1137.12 988.718 1118.8 978.042 1105.84 965.186C1093.11 952.125 1085.61 937.717 1083.32 921.961C1081.57 906.107 1085.16 889.532 1094.08 872.236C1102.99 854.939 1117.66 837.656 1138.06 820.386C1158.47 803.115 1181.22 788.736 1206.31 777.248C1231.4 765.759 1257.45 757.251 1284.46 751.723C1311.77 746.301 1338.71 744.262 1365.28 745.604C1392.09 746.74 1417.33 751.556 1440.99 760.053C1463.76 768.228 1480.85 778.317 1492.26 790.322C1503.97 802.434 1510.74 815.115 1512.58 828.366C1514.96 841.519 1513.13 853.895 1507.11 865.494L1461.38 863.571C1468.79 847.195 1468.54 831.879 1460.64 817.622C1453.29 803.268 1437.63 791.788 1413.66 783.184C1389.1 774.364 1362.5 770.522 1333.86 771.657C1305.21 772.791 1277 778.619 1249.21 789.139C1221.66 799.454 1196.6 814.171 1174 833.292C1151.66 852.208 1137.37 870.797 1131.15 889.062C1124.93 907.326 1126.66 923.909 1136.36 938.811C1146.3 953.507 1163.55 965.265 1188.11 974.085C1212.07 982.689 1237.33 986.048 1263.87 984.16C1290.72 982.38 1316.23 976.313 1340.41 965.961L1362.08 988.238C1345.51 995.76 1325.72 1001.68 1302.69 1006.01C1280.21 1010.23 1256.55 1011.84 1231.72 1010.83C1207.19 1009.93 1183.54 1005.39 1160.78 997.215Z" fill="black"/>
<path d="M1399.34 1077.61L1670.81 847.85L1706.76 860.756L1548.25 994.911L1543.44 989.232L1867.15 918.353L1912.08 934.486L1652.23 991.398L1674.79 974.465L1648.7 1167.15L1605.57 1151.66L1625.18 997.499L1517.28 1021.13L1435.29 1090.52L1399.34 1077.61Z" fill="black"/>
<path d="M1729.26 1196.08L2000.73 966.317L2036.67 979.223L1792.53 1185.85L1940.8 1239.09L1913.47 1262.22L1729.26 1196.08Z" fill="black"/>
<path d="M2003.89 1294.69L2275.36 1064.93L2491.02 1142.37L2463.69 1165.5L2283.97 1100.97L2189.59 1180.85L2360.32 1242.15L2332.99 1265.28L2162.26 1203.98L2067.16 1284.47L2246.88 1349L2219.55 1372.13L2003.89 1294.69Z" fill="black"/>
<path d="M2314.93 1406.38L2586.4 1176.62L2696.48 1216.15C2729.73 1228.09 2753.04 1243.2 2766.43 1261.48C2780.06 1279.55 2783.41 1299.64 2776.48 1321.75C2769.8 1343.65 2752.61 1366.33 2724.92 1389.76C2697.47 1413 2666.8 1430.83 2632.91 1443.26C2599.03 1455.69 2564.22 1462.22 2528.48 1462.86C2492.75 1463.5 2458.26 1457.85 2425.01 1445.91L2314.93 1406.38ZM2378.21 1396.16L2452.34 1422.78C2478.1 1432.03 2504.78 1436.34 2532.4 1435.72C2560.26 1434.89 2587.42 1429.41 2613.88 1419.29C2640.64 1409.28 2665.07 1394.92 2687.18 1376.21C2709.28 1357.5 2723.11 1339.48 2728.66 1322.15C2734.45 1304.61 2732.29 1288.75 2722.16 1274.57C2712.28 1260.19 2694.61 1248.42 2669.15 1239.28L2595.02 1212.66L2378.21 1396.16Z" fill="black"/>
<path d="M221.369 1093.86L492.838 864.104L621.335 910.246C644.398 918.528 661.487 928.617 672.6 940.514C684.013 952.519 688.373 965.798 685.682 980.352C682.991 994.905 672.171 1010.2 653.223 1026.24C634.761 1041.86 613.851 1053.24 590.492 1060.38C567.433 1067.62 543.517 1070.89 518.743 1070.19C494.512 1069.4 471.015 1064.91 448.251 1056.74L389.393 1035.6L291.009 1118.87L221.369 1093.86ZM438.586 993.968L497.892 1015.26C507.777 1018.81 517.892 1020.54 528.239 1020.45C538.585 1020.36 548.499 1018.65 557.981 1015.32C567.761 1012.09 576.295 1007.4 583.583 1001.23C591.114 994.857 595.576 988.553 596.97 982.319C598.663 976.192 597.495 970.501 593.464 965.247C589.434 959.993 582.476 955.591 572.592 952.041L513.285 930.745L438.586 993.968Z" fill="black"/>
<path d="M836.634 1314.8L1108.1 1085.04L1177.74 1110.04L906.274 1339.8L836.634 1314.8Z" fill="black"/>
<path d="M1289.12 1477.28L1560.59 1247.52L1614.05 1266.72L1601.74 1493.78L1567.52 1488.08L1765.02 1320.93L1834.66 1345.93L1563.19 1575.69L1509.27 1556.33L1526.19 1329.17L1557.71 1333.9L1358.76 1502.28L1289.12 1477.28Z" fill="black"/>
<path d="M1946.07 1713.18L2217.53 1483.42L2287.18 1508.43L2151.26 1623.46L2137.4 1611.9L2401.74 1549.57L2488.91 1580.86L2226.64 1643.06L2270.77 1610.59L2220.13 1811.59L2138.81 1782.39L2171.82 1655.88L2090.04 1675.27L2015.71 1738.19L1946.07 1713.18Z" fill="black"/>
<path d="M653.599 809.823L897.739 603.193L805.186 569.958L832.515 546.828L1052.67 625.882L1025.34 649.012L933.683 616.1L689.543 822.73L653.599 809.823Z" stroke="black" stroke-width="42" mask="url(#path-1-outside-1_5420_148)"/>
<path d="M861.495 884.475L1132.96 654.715L1168.91 667.622L897.438 897.382L861.495 884.475Z" stroke="black" stroke-width="42" mask="url(#path-1-outside-1_5420_148)"/>
<path d="M1160.78 997.215C1137.12 988.718 1118.8 978.042 1105.84 965.186C1093.11 952.125 1085.61 937.717 1083.32 921.961C1081.57 906.107 1085.16 889.532 1094.08 872.236C1102.99 854.939 1117.66 837.656 1138.06 820.386C1158.47 803.115 1181.22 788.736 1206.31 777.248C1231.4 765.759 1257.45 757.251 1284.46 751.723C1311.77 746.301 1338.71 744.262 1365.28 745.604C1392.09 746.74 1417.33 751.556 1440.99 760.053C1463.76 768.228 1480.85 778.317 1492.26 790.322C1503.97 802.434 1510.74 815.115 1512.58 828.366C1514.96 841.519 1513.13 853.895 1507.11 865.494L1461.38 863.571C1468.79 847.195 1468.54 831.879 1460.64 817.622C1453.29 803.268 1437.63 791.788 1413.66 783.184C1389.1 774.364 1362.5 770.522 1333.86 771.657C1305.21 772.791 1277 778.619 1249.21 789.139C1221.66 799.454 1196.6 814.171 1174 833.292C1151.66 852.208 1137.37 870.797 1131.15 889.062C1124.93 907.326 1126.66 923.909 1136.36 938.811C1146.3 953.507 1163.55 965.265 1188.11 974.085C1212.07 982.689 1237.33 986.048 1263.87 984.16C1290.72 982.38 1316.23 976.313 1340.41 965.961L1362.08 988.238C1345.51 995.76 1325.72 1001.68 1302.69 1006.01C1280.21 1010.23 1256.55 1011.84 1231.72 1010.83C1207.19 1009.93 1183.54 1005.39 1160.78 997.215Z" stroke="black" stroke-width="42" mask="url(#path-1-outside-1_5420_148)"/>
<path d="M1399.34 1077.61L1670.81 847.85L1706.76 860.756L1548.25 994.911L1543.44 989.232L1867.15 918.353L1912.08 934.486L1652.23 991.398L1674.79 974.465L1648.7 1167.15L1605.57 1151.66L1625.18 997.499L1517.28 1021.13L1435.29 1090.52L1399.34 1077.61Z" stroke="black" stroke-width="42" mask="url(#path-1-outside-1_5420_148)"/>
<path d="M1729.26 1196.08L2000.73 966.317L2036.67 979.223L1792.53 1185.85L1940.8 1239.09L1913.47 1262.22L1729.26 1196.08Z" stroke="black" stroke-width="42" mask="url(#path-1-outside-1_5420_148)"/>
<path d="M2003.89 1294.69L2275.36 1064.93L2491.02 1142.37L2463.69 1165.5L2283.97 1100.97L2189.59 1180.85L2360.32 1242.15L2332.99 1265.28L2162.26 1203.98L2067.16 1284.47L2246.88 1349L2219.55 1372.13L2003.89 1294.69Z" stroke="black" stroke-width="42" mask="url(#path-1-outside-1_5420_148)"/>
<path d="M2314.93 1406.38L2586.4 1176.62L2696.48 1216.15C2729.73 1228.09 2753.04 1243.2 2766.43 1261.48C2780.06 1279.55 2783.41 1299.64 2776.48 1321.75C2769.8 1343.65 2752.61 1366.33 2724.92 1389.76C2697.47 1413 2666.8 1430.83 2632.91 1443.26C2599.03 1455.69 2564.22 1462.22 2528.48 1462.86C2492.75 1463.5 2458.26 1457.85 2425.01 1445.91L2314.93 1406.38ZM2378.21 1396.16L2452.34 1422.78C2478.1 1432.03 2504.78 1436.34 2532.4 1435.72C2560.26 1434.89 2587.42 1429.41 2613.88 1419.29C2640.64 1409.28 2665.07 1394.92 2687.18 1376.21C2709.28 1357.5 2723.11 1339.48 2728.66 1322.15C2734.45 1304.61 2732.29 1288.75 2722.16 1274.57C2712.28 1260.19 2694.61 1248.42 2669.15 1239.28L2595.02 1212.66L2378.21 1396.16Z" stroke="black" stroke-width="42" mask="url(#path-1-outside-1_5420_148)"/>
<path d="M221.369 1093.86L492.838 864.104L621.335 910.246C644.398 918.528 661.487 928.617 672.6 940.514C684.013 952.519 688.373 965.798 685.682 980.352C682.991 994.905 672.171 1010.2 653.223 1026.24C634.761 1041.86 613.851 1053.24 590.492 1060.38C567.433 1067.62 543.517 1070.89 518.743 1070.19C494.512 1069.4 471.015 1064.91 448.251 1056.74L389.393 1035.6L291.009 1118.87L221.369 1093.86ZM438.586 993.968L497.892 1015.26C507.777 1018.81 517.892 1020.54 528.239 1020.45C538.585 1020.36 548.499 1018.65 557.981 1015.32C567.761 1012.09 576.295 1007.4 583.583 1001.23C591.114 994.857 595.576 988.553 596.97 982.319C598.663 976.192 597.495 970.501 593.464 965.247C589.434 959.993 582.476 955.591 572.592 952.041L513.285 930.745L438.586 993.968Z" stroke="black" stroke-width="42" mask="url(#path-1-outside-1_5420_148)"/>
<path d="M836.634 1314.8L1108.1 1085.04L1177.74 1110.04L906.274 1339.8L836.634 1314.8Z" stroke="black" stroke-width="42" mask="url(#path-1-outside-1_5420_148)"/>
<path d="M1289.12 1477.28L1560.59 1247.52L1614.05 1266.72L1601.74 1493.78L1567.52 1488.08L1765.02 1320.93L1834.66 1345.93L1563.19 1575.69L1509.27 1556.33L1526.19 1329.17L1557.71 1333.9L1358.76 1502.28L1289.12 1477.28Z" stroke="black" stroke-width="42" mask="url(#path-1-outside-1_5420_148)"/>
<path d="M1946.07 1713.18L2217.53 1483.42L2287.18 1508.43L2151.26 1623.46L2137.4 1611.9L2401.74 1549.57L2488.91 1580.86L2226.64 1643.06L2270.77 1610.59L2220.13 1811.59L2138.81 1782.39L2171.82 1655.88L2090.04 1675.27L2015.71 1738.19L1946.07 1713.18Z" stroke="black" stroke-width="42" mask="url(#path-1-outside-1_5420_148)"/>
</g>
<g filter="url(#filter1_f_5420_148)">
<mask id="path-2-outside-2_5420_148" maskUnits="userSpaceOnUse" x="185.352" y="448.192" width="2602" height="1308" fill="black">
<rect fill="white" x="185.352" y="448.192" width="2602" height="1308"/>
<path d="M639.647 733.236L883.824 526.568L791.256 493.327L818.589 470.192L1038.77 549.261L1011.44 572.395L919.773 539.477L675.596 746.145L639.647 733.236Z"/>
<path d="M847.574 807.902L1119.08 578.099L1155.03 591.008L883.522 820.811L847.574 807.902Z"/>
<path d="M1146.9 920.663C1123.24 912.165 1104.92 901.486 1091.95 888.628C1079.23 875.565 1071.72 861.154 1069.43 845.395C1067.68 829.538 1071.27 812.96 1080.19 795.66C1089.11 778.361 1103.77 761.074 1124.18 743.801C1144.59 726.527 1167.34 712.145 1192.44 700.655C1217.53 689.164 1243.59 680.654 1270.6 675.125C1297.92 669.703 1324.86 667.663 1351.43 669.005C1378.25 670.141 1403.49 674.959 1427.16 683.457C1449.93 691.633 1467.02 701.724 1478.43 713.731C1490.15 725.846 1496.92 738.529 1498.76 751.782C1501.13 764.938 1499.31 777.316 1493.28 788.917L1447.55 786.994C1454.96 770.615 1454.71 755.296 1446.81 741.037C1439.45 726.68 1423.79 715.198 1399.83 706.592C1375.26 697.77 1348.66 693.927 1320.01 695.063C1291.36 696.198 1263.14 702.026 1235.35 712.548C1207.8 722.865 1182.73 737.585 1160.13 756.71C1137.78 775.629 1123.49 794.222 1117.27 812.489C1111.04 830.757 1112.78 847.343 1122.48 862.248C1132.42 876.947 1149.67 888.707 1174.24 897.529C1198.2 906.135 1223.46 909.494 1250.01 907.605C1276.86 905.825 1302.38 899.757 1326.56 889.403L1348.23 911.684C1331.67 919.208 1311.87 925.131 1288.84 929.456C1266.35 933.682 1242.69 935.29 1217.86 934.28C1193.32 933.378 1169.67 928.839 1146.9 920.663Z"/>
<path d="M1385.5 1001.07L1657.01 771.27L1692.96 784.179L1534.43 918.359L1529.62 912.678L1853.38 841.786L1898.32 857.922L1638.42 914.845L1660.99 897.908L1634.9 1090.63L1591.76 1075.14L1611.37 920.947L1503.45 944.578L1421.45 1013.98L1385.5 1001.07Z"/>
<path d="M1715.47 1119.56L1986.98 889.759L2022.93 902.668L1778.75 1109.34L1927.04 1162.59L1899.7 1185.72L1715.47 1119.56Z"/>
<path d="M1990.14 1218.2L2261.65 988.393L2477.34 1065.85L2450.01 1088.98L2270.26 1024.44L2175.87 1104.33L2346.63 1165.65L2319.29 1188.78L2148.54 1127.46L2053.42 1207.97L2233.16 1272.52L2205.83 1295.65L1990.14 1218.2Z"/>
<path d="M2301.23 1329.91L2572.74 1100.11L2682.83 1139.64C2716.09 1151.58 2739.41 1166.69 2752.79 1184.97C2766.43 1203.05 2769.78 1223.14 2762.85 1245.26C2756.16 1267.17 2738.97 1289.84 2711.28 1313.28C2683.82 1336.52 2653.15 1354.36 2619.26 1366.79C2585.37 1379.22 2550.55 1385.76 2514.81 1386.4C2479.07 1387.04 2444.58 1381.38 2411.32 1369.44L2301.23 1329.91ZM2364.51 1319.68L2438.66 1346.31C2464.42 1355.56 2491.11 1359.87 2518.73 1359.25C2546.59 1358.42 2573.76 1352.94 2600.22 1342.82C2626.98 1332.81 2651.42 1318.44 2673.53 1299.73C2695.64 1281.02 2709.47 1262.99 2715.02 1245.65C2720.81 1228.11 2718.65 1212.25 2708.52 1198.07C2698.64 1183.68 2680.96 1171.92 2655.5 1162.77L2581.36 1136.15L2364.51 1319.68Z"/>
<path d="M207.352 1017.33L478.861 787.527L607.378 833.678C630.445 841.961 647.536 852.052 658.651 863.951C670.065 875.958 674.426 889.24 671.735 903.796C669.043 918.353 658.222 933.651 639.271 949.691C620.806 965.32 599.892 976.701 576.53 983.835C553.468 991.076 529.548 994.348 504.771 993.652C480.536 992.857 457.035 988.372 434.268 980.196L375.402 959.057L277.002 1042.34L207.352 1017.33ZM424.601 917.415L483.917 938.715C493.803 942.265 503.92 943.995 514.268 943.903C524.616 943.812 534.531 942.1 544.014 938.769C553.796 935.545 562.332 930.849 569.621 924.68C577.152 918.305 581.615 912 583.009 905.764C584.703 899.636 583.534 893.944 579.503 888.689C575.472 883.434 568.513 879.031 558.627 875.481L499.312 854.181L424.601 917.415Z"/>
<path d="M822.709 1238.3L1094.22 1008.5L1163.87 1033.51L892.36 1263.32L822.709 1238.3Z"/>
<path d="M1275.26 1400.82L1546.77 1171.01L1600.25 1190.22L1587.93 1417.32L1553.7 1411.62L1751.23 1244.43L1820.88 1269.44L1549.37 1499.25L1495.45 1479.88L1512.37 1252.68L1543.9 1257.41L1344.91 1425.83L1275.26 1400.82Z"/>
<path d="M1932.31 1636.76L2203.82 1406.96L2273.47 1431.97L2137.53 1547.02L2123.68 1535.46L2388.05 1473.12L2475.23 1504.42L2212.93 1566.63L2257.06 1534.15L2206.42 1735.19L2125.08 1705.99L2158.1 1579.45L2076.3 1598.85L2001.96 1661.77L1932.31 1636.76Z"/>
</mask>
<path d="M639.647 733.236L883.824 526.568L791.256 493.327L818.589 470.192L1038.77 549.261L1011.44 572.395L919.773 539.477L675.596 746.145L639.647 733.236Z" fill="white"/>
<path d="M847.574 807.902L1119.08 578.099L1155.03 591.008L883.522 820.811L847.574 807.902Z" fill="white"/>
<path d="M1146.9 920.663C1123.24 912.165 1104.92 901.486 1091.95 888.628C1079.23 875.565 1071.72 861.154 1069.43 845.395C1067.68 829.538 1071.27 812.96 1080.19 795.66C1089.11 778.361 1103.77 761.074 1124.18 743.801C1144.59 726.527 1167.34 712.145 1192.44 700.655C1217.53 689.164 1243.59 680.654 1270.6 675.125C1297.92 669.703 1324.86 667.663 1351.43 669.005C1378.25 670.141 1403.49 674.959 1427.16 683.457C1449.93 691.633 1467.02 701.724 1478.43 713.731C1490.15 725.846 1496.92 738.529 1498.76 751.782C1501.13 764.938 1499.31 777.316 1493.28 788.917L1447.55 786.994C1454.96 770.615 1454.71 755.296 1446.81 741.037C1439.45 726.68 1423.79 715.198 1399.83 706.592C1375.26 697.77 1348.66 693.927 1320.01 695.063C1291.36 696.198 1263.14 702.026 1235.35 712.548C1207.8 722.865 1182.73 737.585 1160.13 756.71C1137.78 775.629 1123.49 794.222 1117.27 812.489C1111.04 830.757 1112.78 847.343 1122.48 862.248C1132.42 876.947 1149.67 888.707 1174.24 897.529C1198.2 906.135 1223.46 909.494 1250.01 907.605C1276.86 905.825 1302.38 899.757 1326.56 889.403L1348.23 911.684C1331.67 919.208 1311.87 925.131 1288.84 929.456C1266.35 933.682 1242.69 935.29 1217.86 934.28C1193.32 933.378 1169.67 928.839 1146.9 920.663Z" fill="white"/>
<path d="M1385.5 1001.07L1657.01 771.27L1692.96 784.179L1534.43 918.359L1529.62 912.678L1853.38 841.786L1898.32 857.922L1638.42 914.845L1660.99 897.908L1634.9 1090.63L1591.76 1075.14L1611.37 920.947L1503.45 944.578L1421.45 1013.98L1385.5 1001.07Z" fill="white"/>
<path d="M1715.47 1119.56L1986.98 889.759L2022.93 902.668L1778.75 1109.34L1927.04 1162.59L1899.7 1185.72L1715.47 1119.56Z" fill="white"/>
<path d="M1990.14 1218.2L2261.65 988.393L2477.34 1065.85L2450.01 1088.98L2270.26 1024.44L2175.87 1104.33L2346.63 1165.65L2319.29 1188.78L2148.54 1127.46L2053.42 1207.97L2233.16 1272.52L2205.83 1295.65L1990.14 1218.2Z" fill="white"/>
<path d="M2301.23 1329.91L2572.74 1100.11L2682.83 1139.64C2716.09 1151.58 2739.41 1166.69 2752.79 1184.97C2766.43 1203.05 2769.78 1223.14 2762.85 1245.26C2756.16 1267.17 2738.97 1289.84 2711.28 1313.28C2683.82 1336.52 2653.15 1354.36 2619.26 1366.79C2585.37 1379.22 2550.55 1385.76 2514.81 1386.4C2479.07 1387.04 2444.58 1381.38 2411.32 1369.44L2301.23 1329.91ZM2364.51 1319.68L2438.66 1346.31C2464.42 1355.56 2491.11 1359.87 2518.73 1359.25C2546.59 1358.42 2573.76 1352.94 2600.22 1342.82C2626.98 1332.81 2651.42 1318.44 2673.53 1299.73C2695.64 1281.02 2709.47 1262.99 2715.02 1245.65C2720.81 1228.11 2718.65 1212.25 2708.52 1198.07C2698.64 1183.68 2680.96 1171.92 2655.5 1162.77L2581.36 1136.15L2364.51 1319.68Z" fill="white"/>
<path d="M207.352 1017.33L478.861 787.527L607.378 833.678C630.445 841.961 647.536 852.052 658.651 863.951C670.065 875.958 674.426 889.24 671.735 903.796C669.043 918.353 658.222 933.651 639.271 949.691C620.806 965.32 599.892 976.701 576.53 983.835C553.468 991.076 529.548 994.348 504.771 993.652C480.536 992.857 457.035 988.372 434.268 980.196L375.402 959.057L277.002 1042.34L207.352 1017.33ZM424.601 917.415L483.917 938.715C493.803 942.265 503.92 943.995 514.268 943.903C524.616 943.812 534.531 942.1 544.014 938.769C553.796 935.545 562.332 930.849 569.621 924.68C577.152 918.305 581.615 912 583.009 905.764C584.703 899.636 583.534 893.944 579.503 888.689C575.472 883.434 568.513 879.031 558.627 875.481L499.312 854.181L424.601 917.415Z" fill="white"/>
<path d="M822.709 1238.3L1094.22 1008.5L1163.87 1033.51L892.36 1263.32L822.709 1238.3Z" fill="white"/>
<path d="M1275.26 1400.82L1546.77 1171.01L1600.25 1190.22L1587.93 1417.32L1553.7 1411.62L1751.23 1244.43L1820.88 1269.44L1549.37 1499.25L1495.45 1479.88L1512.37 1252.68L1543.9 1257.41L1344.91 1425.83L1275.26 1400.82Z" fill="white"/>
<path d="M1932.31 1636.76L2203.82 1406.96L2273.47 1431.97L2137.53 1547.02L2123.68 1535.46L2388.05 1473.12L2475.23 1504.42L2212.93 1566.63L2257.06 1534.15L2206.42 1735.19L2125.08 1705.99L2158.1 1579.45L2076.3 1598.85L2001.96 1661.77L1932.31 1636.76Z" fill="white"/>
<path d="M639.647 733.236L883.824 526.568L791.256 493.327L818.589 470.192L1038.77 549.261L1011.44 572.395L919.773 539.477L675.596 746.145L639.647 733.236Z" stroke="white" stroke-width="42" stroke-linejoin="round" mask="url(#path-2-outside-2_5420_148)"/>
<path d="M847.574 807.902L1119.08 578.099L1155.03 591.008L883.522 820.811L847.574 807.902Z" stroke="white" stroke-width="42" stroke-linejoin="round" mask="url(#path-2-outside-2_5420_148)"/>
<path d="M1146.9 920.663C1123.24 912.165 1104.92 901.486 1091.95 888.628C1079.23 875.565 1071.72 861.154 1069.43 845.395C1067.68 829.538 1071.27 812.96 1080.19 795.66C1089.11 778.361 1103.77 761.074 1124.18 743.801C1144.59 726.527 1167.34 712.145 1192.44 700.655C1217.53 689.164 1243.59 680.654 1270.6 675.125C1297.92 669.703 1324.86 667.663 1351.43 669.005C1378.25 670.141 1403.49 674.959 1427.16 683.457C1449.93 691.633 1467.02 701.724 1478.43 713.731C1490.15 725.846 1496.92 738.529 1498.76 751.782C1501.13 764.938 1499.31 777.316 1493.28 788.917L1447.55 786.994C1454.96 770.615 1454.71 755.296 1446.81 741.037C1439.45 726.68 1423.79 715.198 1399.83 706.592C1375.26 697.77 1348.66 693.927 1320.01 695.063C1291.36 696.198 1263.14 702.026 1235.35 712.548C1207.8 722.865 1182.73 737.585 1160.13 756.71C1137.78 775.629 1123.49 794.222 1117.27 812.489C1111.04 830.757 1112.78 847.343 1122.48 862.248C1132.42 876.947 1149.67 888.707 1174.24 897.529C1198.2 906.135 1223.46 909.494 1250.01 907.605C1276.86 905.825 1302.38 899.757 1326.56 889.403L1348.23 911.684C1331.67 919.208 1311.87 925.131 1288.84 929.456C1266.35 933.682 1242.69 935.29 1217.86 934.28C1193.32 933.378 1169.67 928.839 1146.9 920.663Z" stroke="white" stroke-width="42" stroke-linejoin="round" mask="url(#path-2-outside-2_5420_148)"/>
<path d="M1385.5 1001.07L1657.01 771.27L1692.96 784.179L1534.43 918.359L1529.62 912.678L1853.38 841.786L1898.32 857.922L1638.42 914.845L1660.99 897.908L1634.9 1090.63L1591.76 1075.14L1611.37 920.947L1503.45 944.578L1421.45 1013.98L1385.5 1001.07Z" stroke="white" stroke-width="42" stroke-linejoin="round" mask="url(#path-2-outside-2_5420_148)"/>
<path d="M1715.47 1119.56L1986.98 889.759L2022.93 902.668L1778.75 1109.34L1927.04 1162.59L1899.7 1185.72L1715.47 1119.56Z" stroke="white" stroke-width="42" stroke-linejoin="round" mask="url(#path-2-outside-2_5420_148)"/>
<path d="M1990.14 1218.2L2261.65 988.393L2477.34 1065.85L2450.01 1088.98L2270.26 1024.44L2175.87 1104.33L2346.63 1165.65L2319.29 1188.78L2148.54 1127.46L2053.42 1207.97L2233.16 1272.52L2205.83 1295.65L1990.14 1218.2Z" stroke="white" stroke-width="42" stroke-linejoin="round" mask="url(#path-2-outside-2_5420_148)"/>
<path d="M2301.23 1329.91L2572.74 1100.11L2682.83 1139.64C2716.09 1151.58 2739.41 1166.69 2752.79 1184.97C2766.43 1203.05 2769.78 1223.14 2762.85 1245.26C2756.16 1267.17 2738.97 1289.84 2711.28 1313.28C2683.82 1336.52 2653.15 1354.36 2619.26 1366.79C2585.37 1379.22 2550.55 1385.76 2514.81 1386.4C2479.07 1387.04 2444.58 1381.38 2411.32 1369.44L2301.23 1329.91ZM2364.51 1319.68L2438.66 1346.31C2464.42 1355.56 2491.11 1359.87 2518.73 1359.25C2546.59 1358.42 2573.76 1352.94 2600.22 1342.82C2626.98 1332.81 2651.42 1318.44 2673.53 1299.73C2695.64 1281.02 2709.47 1262.99 2715.02 1245.65C2720.81 1228.11 2718.65 1212.25 2708.52 1198.07C2698.64 1183.68 2680.96 1171.92 2655.5 1162.77L2581.36 1136.15L2364.51 1319.68Z" stroke="white" stroke-width="42" stroke-linejoin="round" mask="url(#path-2-outside-2_5420_148)"/>
<path d="M207.352 1017.33L478.861 787.527L607.378 833.678C630.445 841.961 647.536 852.052 658.651 863.951C670.065 875.958 674.426 889.24 671.735 903.796C669.043 918.353 658.222 933.651 639.271 949.691C620.806 965.32 599.892 976.701 576.53 983.835C553.468 991.076 529.548 994.348 504.771 993.652C480.536 992.857 457.035 988.372 434.268 980.196L375.402 959.057L277.002 1042.34L207.352 1017.33ZM424.601 917.415L483.917 938.715C493.803 942.265 503.92 943.995 514.268 943.903C524.616 943.812 534.531 942.1 544.014 938.769C553.796 935.545 562.332 930.849 569.621 924.68C577.152 918.305 581.615 912 583.009 905.764C584.703 899.636 583.534 893.944 579.503 888.689C575.472 883.434 568.513 879.031 558.627 875.481L499.312 854.181L424.601 917.415Z" stroke="white" stroke-width="42" stroke-linejoin="round" mask="url(#path-2-outside-2_5420_148)"/>
<path d="M822.709 1238.3L1094.22 1008.5L1163.87 1033.51L892.36 1263.32L822.709 1238.3Z" stroke="white" stroke-width="42" stroke-linejoin="round" mask="url(#path-2-outside-2_5420_148)"/>
<path d="M1275.26 1400.82L1546.77 1171.01L1600.25 1190.22L1587.93 1417.32L1553.7 1411.62L1751.23 1244.43L1820.88 1269.44L1549.37 1499.25L1495.45 1479.88L1512.37 1252.68L1543.9 1257.41L1344.91 1425.83L1275.26 1400.82Z" stroke="white" stroke-width="42" stroke-linejoin="round" mask="url(#path-2-outside-2_5420_148)"/>
<path d="M1932.31 1636.76L2203.82 1406.96L2273.47 1431.97L2137.53 1547.02L2123.68 1535.46L2388.05 1473.12L2475.23 1504.42L2212.93 1566.63L2257.06 1534.15L2206.42 1735.19L2125.08 1705.99L2158.1 1579.45L2076.3 1598.85L2001.96 1661.77L1932.31 1636.76Z" stroke="white" stroke-width="42" stroke-linejoin="round" mask="url(#path-2-outside-2_5420_148)"/>
</g>
</g>
<defs>
<filter id="filter0_f_5420_148" x="107.036" y="449.967" width="2766.95" height="1462.22" filterUnits="userSpaceOnUse" color-interpolation-filters="sRGB">
<feFlood flood-opacity="0" result="BackgroundImageFix"/>
<feBlend mode="normal" in="SourceGraphic" in2="BackgroundImageFix" result="shape"/>
<feGaussianBlur stdDeviation="36.5" result="effect1_foregroundBlur_5420_148"/>
</filter>
<filter id="filter1_f_5420_148" x="164.351" y="427.192" width="2645" height="1351" filterUnits="userSpaceOnUse" color-interpolation-filters="sRGB">
<feFlood flood-opacity="0" result="BackgroundImageFix"/>
<feBlend mode="normal" in="SourceGraphic" in2="BackgroundImageFix" result="shape"/>
<feGaussianBlur stdDeviation="11" result="effect1_foregroundBlur_5420_148"/>
</filter>
<clipPath id="clip0_5420_148">
<rect width="2916" height="2358" fill="white"/>
</clipPath>
</defs>
</svg>
